<svg t="1753543307324" class="icon" viewBox="0 0 1025 1024" version="1.1" xmlns="http://www.w3.org/2000/svg" p-id="19020" width="200" height="200"><path d="M972.562011 788.890236c-8.884124 3.194292-15.073064 11.080199-15.572172 20.163967L947.80625 956.291087c-0.698751 11.080199-10.680913 19.565037-22.360042 18.866286l-788.590772-43.622047c-11.679129-0.59893-20.563253-10.181805-19.964323-21.262004l8.684481-141.347409-42.024901-109.504314-18.067712 294.274126c-0.698751 11.080199 8.185373 20.563253 19.964323 21.262005l885.817026 49.012413c11.679129 0.59893 21.761112-7.885908 22.360042-18.966107l11.279843-193.354471c0.998216-16.570388-16.171102-28.548982-32.342204-22.759329z" fill="#FFC64B" p-id="19021"></path><path d="M1022.572641 505.895953L832.512283 14.973242C828.519418 4.591794 816.341181-0.798573 805.460625 2.994648L65.882267 256.142268c-13.076632 4.491973-19.565037 18.566821-14.17467 30.745058 4.991081 11.279843 18.466999 16.869853 30.545415 12.777167l693.760236-237.475626c10.980378-3.793221 23.058793 1.597146 27.051658 11.978594l156.420473 404.177726c4.092686 10.48127-1.696967 22.060577-12.677345 25.753977L198.744839 760.141611c-10.980378 3.793221-23.058793-1.597146-27.051658-11.978594L49.212057 431.62867c-4.791438-12.477702-19.664858-18.666642-32.541847-13.475918-12.078416 4.891259-17.967891 17.868069-13.475918 29.547199l139.151333 359.557463c3.992865 10.381448 16.171102 15.771815 27.051658 11.978594l840.398191-287.685899c11.080199-3.593578 16.770032-15.172886 12.777167-25.654156z" fill="#222222" p-id="19022"></path><path d="M498.90844 316.234881L144.441879 437.617967c-9.383232 3.194292-15.671994 12.078416-15.671994 21.960756 0 15.971459 15.671994 27.15148 30.745058 21.960756l354.466561-121.283265c9.383232-3.194292 15.671994-12.078416 15.671994-21.960755 0.099822-15.971459-15.572172-27.15148-30.745058-22.060578zM219.507735 638.059773L634.266552 496.113435c9.383232-3.194292 15.671994-12.078416 15.671994-21.960756 0-15.971459-15.671994-27.15148-30.745058-21.960756L203.13699 594.537549c-13.076632 4.491973-19.565037 18.566821-14.17467 30.745058 4.991081 11.279843 18.466999 16.869853 30.545415 12.777166z" fill="#222222" p-id="19023"></path></svg>