<svg t="1754824353022" class="icon" viewBox="0 0 1024 1024" version="1.1" xmlns="http://www.w3.org/2000/svg" p-id="30643" width="200" height="200"><path d="M877.714286 950.857143H146.285714a73.142857 73.142857 0 0 1-73.142857-73.142857V146.285714a73.142857 73.142857 0 0 1 73.142857-73.142857h731.428572a73.142857 73.142857 0 0 1 73.142857 73.142857v731.428572a73.142857 73.142857 0 0 1-73.142857 73.142857zM182.857143 146.285714a36.571429 36.571429 0 0 0-36.571429 36.571429v658.285714a36.571429 36.571429 0 0 0 36.571429 36.571429h658.285714a36.571429 36.571429 0 0 0 36.571429-36.571429v-658.285714a36.571429 36.571429 0 0 0-36.571429-36.571429z" fill="#2c2c2c" p-id="30644" data-spm-anchor-id="a313x.search_index.0.i59.58073a81oBabUd" class="selected"></path><path d="M182.857143 146.285714H292.571429v146.285715H146.285714V182.857143a36.571429 36.571429 0 0 1 36.571429-36.571429z" fill="#F7F7F7" p-id="30645"></path><path d="M292.571429 146.285714h146.285714v146.285715H292.571429z" fill="#C4C4C4" p-id="30646"></path><path d="M438.857143 146.285714h146.285714v146.285715H438.857143z" fill="#F7F7F7" p-id="30647"></path><path d="M585.142857 146.285714h146.285714v146.285715H585.142857z" fill="#C4C4C4" p-id="30648"></path><path d="M731.428571 146.285714h109.714286a36.571429 36.571429 0 0 1 36.571429 36.571429V292.571429h-146.285715V146.285714z" fill="#F7F7F7" p-id="30649"></path><path d="M146.285714 292.571429h146.285715v146.285714H146.285714z" fill="#C4C4C4" p-id="30650"></path><path d="M292.571429 292.571429h146.285714v146.285714H292.571429z" fill="#F7F7F7" p-id="30651"></path><path d="M438.857143 292.571429h146.285714v146.285714H438.857143z" fill="#C4C4C4" p-id="30652"></path><path d="M585.142857 292.571429h146.285714v146.285714H585.142857z" fill="#F7F7F7" p-id="30653"></path><path d="M731.428571 292.571429h146.285715v146.285714h-146.285715z" fill="#C4C4C4" p-id="30654"></path><path d="M146.285714 438.857143h146.285715v146.285714H146.285714z" fill="#F7F7F7" p-id="30655"></path><path d="M292.571429 438.857143h146.285714v146.285714H292.571429z" fill="#C4C4C4" p-id="30656"></path><path d="M438.857143 438.857143h146.285714v146.285714H438.857143z" fill="#F7F7F7" p-id="30657"></path><path d="M585.142857 438.857143h146.285714v146.285714H585.142857z" fill="#C4C4C4" p-id="30658"></path><path d="M731.428571 438.857143h146.285715v146.285714h-146.285715z" fill="#F7F7F7" p-id="30659"></path><path d="M146.285714 585.142857h146.285715v146.285714H146.285714z" fill="#C5C5C5" p-id="30660"></path><path d="M292.571429 585.142857h146.285714v146.285714H292.571429z" fill="#F7F7F7" p-id="30661"></path><path d="M438.857143 585.142857h146.285714v146.285714H438.857143z" fill="#C5C5C5" p-id="30662"></path><path d="M585.142857 585.142857h146.285714v146.285714H585.142857z" fill="#F7F7F7" p-id="30663"></path><path d="M731.428571 585.142857h146.285715v146.285714h-146.285715z" fill="#C5C5C5" p-id="30664"></path><path d="M146.285714 731.428571h146.285715v146.285715H182.857143a36.571429 36.571429 0 0 1-36.571429-36.571429V731.428571z" fill="#F7F7F7" p-id="30665"></path><path d="M292.571429 731.428571h146.285714v146.285715H292.571429z" fill="#C4C4C4" p-id="30666"></path><path d="M438.857143 731.428571h146.285714v146.285715H438.857143z" fill="#F7F7F7" p-id="30667"></path><path d="M585.142857 731.428571h146.285714v146.285715H585.142857z" fill="#C4C4C4" p-id="30668"></path><path d="M731.428571 731.428571h146.285715v109.714286a36.571429 36.571429 0 0 1-36.571429 36.571429H731.428571v-146.285715z" fill="#F7F7F7" p-id="30669"></path></svg>