<svg t="1754818651852" class="icon" viewBox="0 0 1024 1024" version="1.1" xmlns="http://www.w3.org/2000/svg" p-id="21212" width="200" height="200"><path d="M490.688 93.632c13.184-7.616 29.44-7.616 42.624 0l330.304 190.72c13.248 7.68 21.376 21.76 21.376 36.928v381.44a42.624 42.624 0 0 1-21.376 36.928l-330.24 190.72a42.688 42.688 0 0 1-42.688 0l-330.304-190.72a42.688 42.688 0 0 1-21.376-36.928V321.28c0-15.232 8.128-29.312 21.376-36.928l330.24-190.72z" fill="#f47229" p-id="21213"></path><path d="M512 140.48L190.208 326.208v371.584L512 883.52l321.792-185.728V326.208L512 140.48z m21.312-46.848a42.688 42.688 0 0 0-42.624 0l-330.304 190.72a42.688 42.688 0 0 0-21.376 36.928v381.44c0 15.232 8.128 29.312 21.376 36.928l330.24 190.72c13.248 7.616 29.504 7.616 42.688 0l330.304-190.72a42.624 42.624 0 0 0 21.376-36.928V321.28a42.688 42.688 0 0 0-21.376-36.928l-330.24-190.72z" fill="#f47229" p-id="21214"></path></svg>